<svg width="90" height="11" viewBox="0 0 90 11" fill="none" xmlns="http://www.w3.org/2000/svg">
<path d="M0.131836 1.14062H8.66821C10.4941 1.12085 12.0432 2.65674 12.0168 4.48926C12.0168 5.15503 11.8389 5.76147 11.4829 6.302C11.1335 6.83594 10.6655 7.24463 10.0854 7.51489L12.0168 10H8.33862L6.6709 7.83789H3.58594V10H0.131836V1.14062ZM7.7981 3.7312H3.58594V5.24072H7.7981C8.00903 5.24072 8.18701 5.16821 8.33203 5.02319C8.48364 4.87158 8.55615 4.6936 8.55615 4.48926C8.55615 4.06738 8.21997 3.7312 7.7981 3.7312ZM18.8921 0.916504C22.2275 0.916504 24.9368 1.89209 24.9368 5.24072V5.88672C24.95 9.23535 22.2209 10.2043 18.8921 10.2109C15.5566 10.2043 12.8276 9.23535 12.8408 5.88672V5.24072C12.8276 1.8855 15.5566 0.923096 18.8921 0.916504ZM21.4827 5.66919V5.45166C21.5024 4.00806 20.3027 3.74438 18.8921 3.72461C17.4749 3.74438 16.2751 4.00806 16.2949 5.45166V5.66919C16.2751 7.11938 17.4749 7.38306 18.8921 7.40283C20.3027 7.38306 21.5024 7.11938 21.4827 5.66919ZM29.3005 4.0542C29.3005 4.44312 30.375 4.49585 31.7659 4.56177C34.2378 4.68701 37.7117 4.8584 37.7051 7.07983C37.7051 9.61108 34.8047 10.2109 31.6934 10.2109C28.5886 10.2043 26.0112 9.82861 25.6816 7.07983H29.3005C29.696 7.76538 30.6123 7.94336 31.6934 7.94336C32.7678 7.94336 34.0862 7.76538 34.0862 7.07983C34.0862 6.69092 33.0117 6.63159 31.6208 6.56567C29.1489 6.44043 25.675 6.26904 25.6816 4.0542C25.6816 1.52295 28.582 0.916504 31.6934 0.916504C34.7981 0.936279 37.3755 1.28564 37.7051 4.0542H34.0862C33.6907 3.35547 32.7744 3.19067 31.6934 3.19067C30.6189 3.19067 29.3005 3.34888 29.3005 4.0542ZM44.4353 3.71143L43.2158 6.32837H45.6482L44.4353 3.71143ZM37.626 10.0066L42.3787 1.14722H46.4854L51.238 10.0066H47.3489L46.6501 8.49048H42.2139L41.5151 10.0066H37.626ZM51.5083 1.14062H60.0447C61.8706 1.12085 63.4197 2.65674 63.3933 4.48926C63.3933 5.15503 63.2153 5.76147 62.8594 6.302C62.51 6.83594 62.042 7.24463 61.4619 7.51489L63.3933 10H59.7151L58.0474 7.83789H54.9624V10H51.5083V1.14062ZM59.1746 3.7312H54.9624V5.24072H59.1746C59.3855 5.24072 59.5635 5.16821 59.7085 5.02319C59.8601 4.87158 59.9326 4.6936 59.9326 4.48926C59.9326 4.06738 59.5964 3.7312 59.1746 3.7312ZM64.4678 1.13403H67.9219V9.99341H64.4678V1.13403ZM74.9883 0.916504C78.3237 0.916504 81.033 1.89209 81.033 5.24072V5.88672C81.0461 9.23535 78.3171 10.2043 74.9883 10.2109C71.6528 10.2043 68.9238 9.23535 68.937 5.88672V5.24072C68.9238 1.8855 71.6528 0.923096 74.9883 0.916504ZM77.5789 5.66919V5.45166C77.5986 4.00806 76.3989 3.74438 74.9883 3.72461C73.571 3.74438 72.3713 4.00806 72.3911 5.45166V5.66919C72.3713 7.11938 73.571 7.38306 74.9883 7.40283C76.3989 7.38306 77.5986 7.11938 77.5789 5.66919Z" fill="white"/>
<circle cx="86.5" cy="5.5" r="3.5" fill="#CB9B64"/>
</svg>
